<svg width="32" height="32" viewBox="0 0 32 32" fill="none" xmlns="http://www.w3.org/2000/svg">
<rect width="32" height="32" rx="4" fill="#EDEDED"/>
<path fill-rule="evenodd" clip-rule="evenodd" d="M11.125 11H8.75C7.92157 11 7.25 11.6716 7.25 12.5V15.9983C9.7128 17.1794 12.7345 17.875 16 17.875C19.2655 17.875 22.2872 17.1794 24.75 15.9983V12.5C24.75 11.6716 24.0784 11 23.25 11H20.875L19.9638 7.96265C19.8369 7.53967 19.4476 7.25 19.006 7.25H12.994C12.5524 7.25 12.1631 7.53967 12.0362 7.96265L11.125 11ZM12.691 11L13.366 8.75H18.634L19.309 11H12.691ZM24.75 17.8733C22.2872 19.0544 19.2655 19.75 16 19.75C12.7345 19.75 9.7128 19.0544 7.25 17.8733V23.25C7.25 24.0784 7.92157 24.75 8.75 24.75H23.25C24.0784 24.75 24.75 24.0784 24.75 23.25V17.8733Z" fill="#AEAEAE"/>
</svg>
